# xmcd
#
# Track frame offsets:
#	150
#	14279
#	28538
#	46576
#	60500
#	79912
#	92520
#	111293
#	132121
#	148725
#	166397
#
# Disc length: 2411 seconds
#
# Revision: 1
# Processed by: cddbd v1.4PL0 Copyright (c) Steve Scherf et al.
# Submitted via: audiograbber 1.80
#
DISCID=8409690b
DTITLE=Ivan Parker - BE BLESSED 
DYEAR=1900
DGENRE=
TTITLE0=BE BLESSED
TTITLE1=FOREVER REDEEMED
TTITLE2=I ROSE TO RICHES
TTITLE3=I LOVE LIVEN' FOR THE LORD
TTITLE4=PRECIOUS JESUS
TTITLE5=HE'S GONNA SAY WELL DONE
TTITLE6=EVERYBODY PRAISE THE LORD
TTITLE7=THE STONE HAS NOT MOVED
TTITLE8=HE IS THE AMEN
TTITLE9=IT DOESN'T MATTER
TTITLE10=GLORY IS WAITING
EXTD=
EXTT0=
EXTT1=
EXTT2=
EXTT3=
EXTT4=
EXTT5=
EXTT6=
EXTT7=
EXTT8=
EXTT9=
EXTT10=
PLAYORDER=
